<svg xmlns="http://www.w3.org/2000/svg" viewBox="0 0 700 500" role="img" aria-label="Monitoring Illustration">
  <defs>
    <linearGradient id="bg" x1="0" y1="0" x2="1" y2="1">
      <stop offset="0%" stop-color="#eff6ff"/>
      <stop offset="100%" stop-color="#dbeafe"/>
    </linearGradient>
    <linearGradient id="line" x1="0" y1="0" x2="1" y2="0">
      <stop offset="0%" stop-color="#2563eb"/>
      <stop offset="100%" stop-color="#0ea5e9"/>
    </linearGradient>
  </defs>
  <rect width="700" height="500" rx="36" fill="url(#bg)"/>
  <rect x="120" y="96" width="460" height="280" rx="24" fill="#fff" stroke="#cbd5e1" stroke-width="2"/>
  <rect x="156" y="138" width="390" height="18" rx="9" fill="#e2e8f0"/>
  <rect x="156" y="176" width="130" height="100" rx="18" fill="#eff6ff" stroke="#dbeafe"/>
  <rect x="306" y="176" width="130" height="100" rx="18" fill="#eff6ff" stroke="#dbeafe"/>
  <rect x="456" y="176" width="90" height="100" rx="18" fill="#eff6ff" stroke="#dbeafe"/>
  <path d="M162 245 C190 220, 215 232, 240 205 S290 190, 330 220 S395 250, 430 200 S490 210, 544 188" fill="none" stroke="url(#line)" stroke-width="8" stroke-linecap="round"/>
  <circle cx="190" cy="245" r="7" fill="#2563eb"/>
  <circle cx="264" cy="208" r="7" fill="#0ea5e9"/>
  <circle cx="338" cy="220" r="7" fill="#2563eb"/>
  <circle cx="430" cy="200" r="7" fill="#0ea5e9"/>
  <circle cx="544" cy="188" r="7" fill="#2563eb"/>
  <rect x="184" y="318" width="220" height="18" rx="9" fill="#cbd5e1"/>
  <rect x="184" y="348" width="160" height="18" rx="9" fill="#cbd5e1"/>
  <circle cx="560" cy="360" r="58" fill="#2563eb" opacity=".12"/>
  <circle cx="560" cy="360" r="36" fill="#2563eb" opacity=".22"/>
  <text x="350" y="458" text-anchor="middle" font-family="Tahoma, Arial, sans-serif" font-size="24" fill="#475569">Network Monitoring Dashboard</text>
</svg>
